<?xml version="1.0" encoding="UTF-8" standalone="no"?><svg xmlns="http://www.w3.org/2000/svg" xmlns:xlink="http://www.w3.org/1999/xlink" contentScriptType="application/ecmascript" contentStyleType="text/css" height="67px" preserveAspectRatio="none" style="width:293px;height:67px;" version="1.1" viewBox="0 0 293 67" width="293px" zoomAndPan="magnify"><defs><filter height="300%" id="f1at0w69zstai6" width="300%" x="-1" y="-1"><feGaussianBlur result="blurOut" stdDeviation="2.0"/><feColorMatrix in="blurOut" result="blurOut2" type="matrix" values="0 0 0 0 0 0 0 0 0 0 0 0 0 0 0 0 0 0 .4 0"/><feOffset dx="4.0" dy="4.0" in="blurOut2" result="blurOut3"/><feBlend in="SourceGraphic" in2="blurOut3" mode="normal"/></filter></defs><g><!--class User--><rect fill="#FEFECE" filter="url(#f1at0w69zstai6)" height="48" id="User" style="stroke: #A80036; stroke-width: 1.5;" width="61" x="6" y="8"/><ellipse cx="21" cy="24" fill="#ADD1B2" rx="11" ry="11" style="stroke: #A80036; stroke-width: 1.0;"/><path d="M23.9688,29.6406 Q23.3906,29.9375 22.75,30.0781 Q22.1094,30.2344 21.4063,30.2344 Q18.9063,30.2344 17.5781,28.5938 Q16.2656,26.9375 16.2656,23.8125 Q16.2656,20.6875 17.5781,19.0313 Q18.9063,17.375 21.4063,17.375 Q22.1094,17.375 22.75,17.5313 Q23.4063,17.6875 23.9688,17.9844 L23.9688,20.7031 Q23.3438,20.125 22.75,19.8594 Q22.1563,19.5781 21.5313,19.5781 Q20.1875,19.5781 19.5,20.6563 Q18.8125,21.7188 18.8125,23.8125 Q18.8125,25.9063 19.5,26.9844 Q20.1875,28.0469 21.5313,28.0469 Q22.1563,28.0469 22.75,27.7813 Q23.3438,27.5 23.9688,26.9219 L23.9688,29.6406 Z "/><text fill="#000000" font-family="sans-serif" font-size="12" lengthAdjust="spacingAndGlyphs" textLength="29" x="35" y="28.1543">User</text><line style="stroke: #A80036; stroke-width: 1.5;" x1="7" x2="66" y1="40" y2="40"/><line style="stroke: #A80036; stroke-width: 1.5;" x1="7" x2="66" y1="48" y2="48"/><!--class Media--><rect fill="#FEFECE" filter="url(#f1at0w69zstai6)" height="48" id="Media" style="stroke: #A80036; stroke-width: 1.5;" width="69" x="213" y="8"/><ellipse cx="228" cy="24" fill="#ADD1B2" rx="11" ry="11" style="stroke: #A80036; stroke-width: 1.0;"/><path d="M230.9688,29.6406 Q230.3906,29.9375 229.75,30.0781 Q229.1094,30.2344 228.4063,30.2344 Q225.9063,30.2344 224.5781,28.5938 Q223.2656,26.9375 223.2656,23.8125 Q223.2656,20.6875 224.5781,19.0313 Q225.9063,17.375 228.4063,17.375 Q229.1094,17.375 229.75,17.5313 Q230.4063,17.6875 230.9688,17.9844 L230.9688,20.7031 Q230.3438,20.125 229.75,19.8594 Q229.1563,19.5781 228.5313,19.5781 Q227.1875,19.5781 226.5,20.6563 Q225.8125,21.7188 225.8125,23.8125 Q225.8125,25.9063 226.5,26.9844 Q227.1875,28.0469 228.5313,28.0469 Q229.1563,28.0469 229.75,27.7813 Q230.3438,27.5 230.9688,26.9219 L230.9688,29.6406 Z "/><text fill="#000000" font-family="sans-serif" font-size="12" lengthAdjust="spacingAndGlyphs" textLength="37" x="242" y="28.1543">Media</text><line style="stroke: #A80036; stroke-width: 1.5;" x1="214" x2="281" y1="40" y2="40"/><line style="stroke: #A80036; stroke-width: 1.5;" x1="214" x2="281" y1="48" y2="48"/><!--link User to Media--><path d="M67.1812,32 C105.9281,32 172.4154,32 212.9225,32 " fill="none" id="User-Media" style="stroke: #A80036; stroke-width: 1.0;"/><text fill="#000000" font-family="sans-serif" font-size="13" lengthAdjust="spacingAndGlyphs" textLength="71" x="98" y="28.0669">has posted</text><polygon fill="#000000" points="172,22.0664,178,25.0664,172,28.0664,172,22.0664" style="stroke: #000000; stroke-width: 1.0;"/><text fill="#000000" font-family="sans-serif" font-size="13" lengthAdjust="spacingAndGlyphs" textLength="8" x="75.2012" y="45.8166">1</text><text fill="#000000" font-family="sans-serif" font-size="13" lengthAdjust="spacingAndGlyphs" textLength="7" x="198.069" y="45.6275">*</text><!--
@startuml
left to right direction
User "1" - - "*" Media : has posted >
@enduml

PlantUML version 1.2018.13(Mon Nov 26 18:11:51 CET 2018)
(GPL source distribution)
Java Runtime: OpenJDK Runtime Environment
JVM: OpenJDK 64-Bit Server VM
Java Version: 11.0.11+9-post-Debian-1deb10u1
Operating System: Linux
OS Version: 5.7.0-2-pinebookpro-arm64
Default Encoding: UTF-8
Language: en
Country: null
--></g></svg>