<?xml version="1.0" encoding="UTF-8" standalone="no"?><svg xmlns="http://www.w3.org/2000/svg" xmlns:xlink="http://www.w3.org/1999/xlink" contentScriptType="application/ecmascript" contentStyleType="text/css" height="161px" preserveAspectRatio="none" style="width:774px;height:161px;" version="1.1" viewBox="0 0 774 161" width="774px" zoomAndPan="magnify"><defs><filter height="300%" id="ft6xnqcbhgpfa" width="300%" x="-1" y="-1"><feGaussianBlur result="blurOut" stdDeviation="2.0"/><feColorMatrix in="blurOut" result="blurOut2" type="matrix" values="0 0 0 0 0 0 0 0 0 0 0 0 0 0 0 0 0 0 .4 0"/><feOffset dx="4.0" dy="4.0" in="blurOut2" result="blurOut3"/><feBlend in="SourceGraphic" in2="blurOut3" mode="normal"/></filter></defs><g><!--entity Bot--><rect fill="#FEFECE" filter="url(#ft6xnqcbhgpfa)" height="52.5938" style="stroke: #A80036; stroke-width: 1.5;" width="115" x="276" y="61.5"/><rect fill="#FEFECE" height="5" style="stroke: #A80036; stroke-width: 1.5;" width="10" x="271" y="66.5"/><rect fill="#FEFECE" height="5" style="stroke: #A80036; stroke-width: 1.5;" width="10" x="271" y="104.0938"/><text fill="#000000" font-family="sans-serif" font-size="14" font-style="italic" lengthAdjust="spacingAndGlyphs" textLength="95" x="286" y="84.4951">«executable»</text><text fill="#000000" font-family="sans-serif" font-size="14" lengthAdjust="spacingAndGlyphs" textLength="24" x="321.5" y="100.792">Bot</text><!--entity GraphicsMagick--><rect fill="#FEFECE" filter="url(#ft6xnqcbhgpfa)" height="36.2969" style="stroke: #A80036; stroke-width: 1.5;" width="129" x="6" y="70"/><rect fill="#FEFECE" height="5" style="stroke: #A80036; stroke-width: 1.5;" width="10" x="1" y="75"/><rect fill="#FEFECE" height="5" style="stroke: #A80036; stroke-width: 1.5;" width="10" x="1" y="96.2969"/><text fill="#000000" font-family="sans-serif" font-size="14" lengthAdjust="spacingAndGlyphs" textLength="109" x="16" y="92.9951">GraphicsMagick</text><!--entity telebot--><rect fill="#FEFECE" filter="url(#ft6xnqcbhgpfa)" height="36.2969" style="stroke: #A80036; stroke-width: 1.5;" width="69" x="533" y="114"/><rect fill="#FEFECE" height="5" style="stroke: #A80036; stroke-width: 1.5;" width="10" x="528" y="119"/><rect fill="#FEFECE" height="5" style="stroke: #A80036; stroke-width: 1.5;" width="10" x="528" y="140.2969"/><text fill="#000000" font-family="sans-serif" font-size="14" lengthAdjust="spacingAndGlyphs" textLength="49" x="543" y="136.9951">telebot</text><!--entity libcurl--><rect fill="#FEFECE" filter="url(#ft6xnqcbhgpfa)" height="36.2969" style="stroke: #A80036; stroke-width: 1.5;" width="60" x="703" y="8"/><rect fill="#FEFECE" height="5" style="stroke: #A80036; stroke-width: 1.5;" width="10" x="698" y="13"/><rect fill="#FEFECE" height="5" style="stroke: #A80036; stroke-width: 1.5;" width="10" x="698" y="34.2969"/><text fill="#000000" font-family="sans-serif" font-size="14" lengthAdjust="spacingAndGlyphs" textLength="40" x="713" y="30.9951">libcurl</text><!--entity HTTP--><ellipse cx="733" cy="88" fill="#FEFECE" filter="url(#ft6xnqcbhgpfa)" rx="8" ry="8" style="stroke: #A80036; stroke-width: 2.0;"/><text fill="#000000" font-family="sans-serif" font-size="14" lengthAdjust="spacingAndGlyphs" textLength="37" x="714.5" y="117.9951">HTTP</text><!--link GraphicsMagick to Bot--><path d="M135.1739,88 C178.2163,88 234.2683,88 275.7981,88 " fill="none" id="GraphicsMagick-Bot" style="stroke: #A80036; stroke-width: 1.0;"/><text fill="#000000" font-family="sans-serif" font-size="13" lengthAdjust="spacingAndGlyphs" textLength="79" x="166" y="84.0669">MagickWand</text><path d="M213.1243,95.0711 A10,10 0 0 0 213.1243 80.9289" fill="#FFFFFF" style="stroke: #A80036; stroke-width: 1.5;"/><ellipse cx="206.0532" cy="88" fill="#FFFFFF" rx="6" ry="6" style="stroke: #A80036; stroke-width: 1.5;"/><!--link Bot to telebot--><path d="M391.0425,98.82 C435.4284,107.166 495.3631,118.4358 532.7087,125.458 " fill="none" id="Bot-telebot" style="stroke: #A80036; stroke-width: 1.0;"/><text fill="#000000" font-family="sans-serif" font-size="13" lengthAdjust="spacingAndGlyphs" textLength="80" x="422" y="100.0669">TelegramAPI</text><path d="M458.8731,104.3794 A10,10 0 0 0 456.2597 118.278" fill="#FFFFFF" style="stroke: #A80036; stroke-width: 1.5;"/><ellipse cx="464.5157" cy="112.6354" fill="#FFFFFF" rx="6" ry="6" style="stroke: #A80036; stroke-width: 1.5;"/><!--link telebot to HTTP--><path d="M602.1942,122.7762 C638.2984,113.1775 693.0801,98.6132 718.766,91.7843 " fill="none" id="telebot-HTTP" style="stroke: #A80036; stroke-width: 1.0; stroke-dasharray: 7.0,7.0;"/><polygon fill="#A80036" points="723.7883,90.449,714.0627,88.8958,718.9562,91.7337,716.1182,96.6272,723.7883,90.449" style="stroke: #A80036; stroke-width: 1.0;"/><text fill="#000000" font-family="sans-serif" font-size="13" lengthAdjust="spacingAndGlyphs" textLength="39" x="633" y="100.0669">«use»</text><!--link libcurl to HTTP--><path d="M733,44.1489 C733,55.6982 733,67.2476 733,78.7969 " fill="none" id="libcurl-HTTP" style="stroke: #A80036; stroke-width: 1.0;"/><!--link Bot to HTTP--><path d="M391.3275,81.2073 C401.2135,80.2882 411.3918,79.4928 421,79 C532.853,73.2627 561.3102,70.6699 673,79 C688.6674,80.1685 706.4461,83.0306 718.5572,85.2161 " fill="none" id="Bot-HTTP" style="stroke: #A80036; stroke-width: 1.0; stroke-dasharray: 7.0,7.0;"/><polygon fill="#A80036" points="723.695,86.1642,715.5702,80.5975,718.778,85.2569,714.1186,88.4647,723.695,86.1642" style="stroke: #A80036; stroke-width: 1.0;"/><text fill="#000000" font-family="sans-serif" font-size="13" lengthAdjust="spacingAndGlyphs" textLength="39" x="548" y="70.0669">«use»</text><!--
@startuml
left to right direction
component Bot <<executable>>
component GraphicsMagick
component telebot
component libcurl
() HTTP

GraphicsMagick -0)- Bot : MagickWand
Bot -(0- telebot : TelegramAPI
telebot ..> HTTP : <<use>>
libcurl - HTTP
Bot ..> HTTP : <<use>>
@enduml

PlantUML version 1.2018.13(Mon Nov 26 18:11:51 CET 2018)
(GPL source distribution)
Java Runtime: OpenJDK Runtime Environment
JVM: OpenJDK 64-Bit Server VM
Java Version: 11.0.11+9-post-Debian-1deb10u1
Operating System: Linux
OS Version: 5.7.0-2-pinebookpro-arm64
Default Encoding: UTF-8
Language: en
Country: null
--></g></svg>