<?xml version="1.0" encoding="UTF-8" standalone="no"?><svg xmlns="http://www.w3.org/2000/svg" xmlns:xlink="http://www.w3.org/1999/xlink" contentScriptType="application/ecmascript" contentStyleType="text/css" height="311px" preserveAspectRatio="none" style="width:918px;height:311px;" version="1.1" viewBox="0 0 918 311" width="918px" zoomAndPan="magnify"><defs><filter height="300%" id="fllsqz6c3or4r" width="300%" x="-1" y="-1"><feGaussianBlur result="blurOut" stdDeviation="2.0"/><feColorMatrix in="blurOut" result="blurOut2" type="matrix" values="0 0 0 0 0 0 0 0 0 0 0 0 0 0 0 0 0 0 .4 0"/><feOffset dx="4.0" dy="4.0" in="blurOut2" result="blurOut3"/><feBlend in="SourceGraphic" in2="blurOut3" mode="normal"/></filter></defs><g><!--cluster PC--><polygon fill="#FFFFFF" filter="url(#fllsqz6c3or4r)" points="6,77,16,67,220,67,220,258,210,268,6,268,6,77" style="stroke: #000000; stroke-width: 1.5;"/><line style="stroke: #000000; stroke-width: 1.5;" x1="210" x2="219" y1="77" y2="68"/><line style="stroke: #000000; stroke-width: 1.5;" x1="6" x2="210" y1="77" y2="77"/><line style="stroke: #000000; stroke-width: 1.5;" x1="210" x2="210" y1="77" y2="268"/><text fill="#000000" font-family="sans-serif" font-size="14" font-style="italic" lengthAdjust="spacingAndGlyphs" textLength="138" x="40" y="92.9951">«client workstation»</text><text fill="#000000" font-family="sans-serif" font-size="14" font-weight="bold" lengthAdjust="spacingAndGlyphs" textLength="94" x="62" y="109.292">: GenericPC</text><!--cluster Browser--><polygon fill="#FFFFFF" filter="url(#fllsqz6c3or4r)" points="18,125,28,115,207,115,207,250,197,260,18,260,18,125" style="stroke: #000000; stroke-width: 1.5;"/><line style="stroke: #000000; stroke-width: 1.5;" x1="197" x2="206" y1="125" y2="116"/><line style="stroke: #000000; stroke-width: 1.5;" x1="18" x2="197" y1="125" y2="125"/><line style="stroke: #000000; stroke-width: 1.5;" x1="197" x2="197" y1="125" y2="260"/><text fill="#000000" font-family="sans-serif" font-size="14" font-style="italic" lengthAdjust="spacingAndGlyphs" textLength="73" x="72" y="140.9951">«browser»</text><text fill="#000000" font-family="sans-serif" font-size="14" font-weight="bold" lengthAdjust="spacingAndGlyphs" textLength="113" x="52" y="157.292">: WebBrowser</text><!--cluster Server--><polygon fill="#FFFFFF" filter="url(#fllsqz6c3or4r)" points="299,26,309,16,896,16,896,289,886,299,299,299,299,26" style="stroke: #000000; stroke-width: 1.5;"/><line style="stroke: #000000; stroke-width: 1.5;" x1="886" x2="895" y1="26" y2="17"/><line style="stroke: #000000; stroke-width: 1.5;" x1="299" x2="886" y1="26" y2="26"/><line style="stroke: #000000; stroke-width: 1.5;" x1="886" x2="886" y1="26" y2="299"/><text fill="#000000" font-family="sans-serif" font-size="14" font-style="italic" lengthAdjust="spacingAndGlyphs" textLength="61" x="563" y="41.9951">«server»</text><text fill="#000000" font-family="sans-serif" font-size="14" font-weight="bold" lengthAdjust="spacingAndGlyphs" textLength="126" x="530.5" y="58.292">: Raspberry Pi 4</text><!--cluster Raspbian--><polygon fill="#FFFFFF" filter="url(#fllsqz6c3or4r)" points="307,74,317,64,888,64,888,281,878,291,307,291,307,74" style="stroke: #000000; stroke-width: 1.5;"/><line style="stroke: #000000; stroke-width: 1.5;" x1="878" x2="887" y1="74" y2="65"/><line style="stroke: #000000; stroke-width: 1.5;" x1="307" x2="878" y1="74" y2="74"/><line style="stroke: #000000; stroke-width: 1.5;" x1="878" x2="878" y1="74" y2="291"/><text fill="#000000" font-family="sans-serif" font-size="14" font-style="italic" lengthAdjust="spacingAndGlyphs" textLength="38" x="574.5" y="89.9951">«OS»</text><text fill="#000000" font-family="sans-serif" font-size="14" font-weight="bold" lengthAdjust="spacingAndGlyphs" textLength="82" x="552.5" y="106.292">: Raspbian</text><!--entity WebClient--><rect fill="#FEFECE" filter="url(#fllsqz6c3or4r)" height="52.5938" style="stroke: #000000; stroke-width: 1.5;" width="90" x="67" y="198.5"/><text fill="#000000" font-family="sans-serif" font-size="14" font-style="italic" lengthAdjust="spacingAndGlyphs" textLength="64" x="80" y="221.4951">«artifact»</text><text fill="#000000" font-family="sans-serif" font-size="14" lengthAdjust="spacingAndGlyphs" textLength="70" x="77" y="237.792">WebClient</text><!--entity DB--><polygon fill="#FEFECE" filter="url(#fllsqz6c3or4r)" points="728,226.5,738,216.5,880,216.5,880,269.0938,870,279.0938,728,279.0938,728,226.5" style="stroke: #000000; stroke-width: 1.5;"/><line style="stroke: #000000; stroke-width: 1.5;" x1="870" x2="879" y1="226.5" y2="217.5"/><line style="stroke: #000000; stroke-width: 1.5;" x1="728" x2="870" y1="226.5" y2="226.5"/><line style="stroke: #000000; stroke-width: 1.5;" x1="870" x2="870" y1="226.5" y2="279.0938"/><text fill="#000000" font-family="sans-serif" font-size="14" font-style="italic" lengthAdjust="spacingAndGlyphs" textLength="81" x="758.5" y="249.4951">«database»</text><text fill="#000000" font-family="sans-serif" font-size="14" lengthAdjust="spacingAndGlyphs" textLength="112" x="743" y="265.792">: PostgreSQL 12</text><!--entity Apache--><polygon fill="#FEFECE" filter="url(#fllsqz6c3or4r)" points="317.5,122.5,327.5,112.5,451.5,112.5,451.5,165.0938,441.5,175.0938,317.5,175.0938,317.5,122.5" style="stroke: #000000; stroke-width: 1.5;"/><line style="stroke: #000000; stroke-width: 1.5;" x1="441.5" x2="450.5" y1="122.5" y2="113.5"/><line style="stroke: #000000; stroke-width: 1.5;" x1="317.5" x2="441.5" y1="122.5" y2="122.5"/><line style="stroke: #000000; stroke-width: 1.5;" x1="441.5" x2="441.5" y1="122.5" y2="175.0938"/><text fill="#000000" font-family="sans-serif" font-size="14" font-style="italic" lengthAdjust="spacingAndGlyphs" textLength="94" x="332.5" y="145.4951">«web server»</text><text fill="#000000" font-family="sans-serif" font-size="14" lengthAdjust="spacingAndGlyphs" textLength="74" x="342.5" y="161.792">: Apache 2</text><!--entity Manager--><rect fill="#FEFECE" filter="url(#fllsqz6c3or4r)" height="55.5938" style="stroke: #000000; stroke-width: 1.5;" width="139" x="315" y="227"/><polygon fill="#FEFECE" points="437,232,437,246,449,246,449,238,443,232,437,232" style="stroke: #000000; stroke-width: 1.5;"/><line style="stroke: #000000; stroke-width: 1.5;" x1="443" x2="443" y1="232" y2="238"/><line style="stroke: #000000; stroke-width: 1.5;" x1="449" x2="443" y1="238" y2="238"/><text fill="#000000" font-family="sans-serif" font-size="14" font-style="italic" lengthAdjust="spacingAndGlyphs" textLength="64" x="347.5" y="252.9951">«artifact»</text><text fill="#000000" font-family="sans-serif" font-size="14" lengthAdjust="spacingAndGlyphs" textLength="109" x="325" y="269.292">: MusicManager</text><!--link Browser to Apache--><path d="M207.3535,156.3515 C207.6869,156.3283 208.0206,156.305 208.3547,156.2817 C209.6911,156.1885 211.033,156.0949 212.38,156.001 C215.074,155.8132 217.7881,155.6239 220.5178,155.4336 C231.4363,154.6723 242.6029,153.8937 253.7209,153.1185 C275.9569,151.5682 297.9982,150.0313 317.4709,148.6736 " fill="none" id="Browser-Apache" style="stroke: #A80036; stroke-width: 1.0;"/><text fill="#000000" font-family="sans-serif" font-size="13" lengthAdjust="spacingAndGlyphs" textLength="41" x="243" y="148.0669">HTTPS</text><!--link WebClient to Manager--><path d="M157.3037,229.9876 C200.2089,234.7111 265.2573,241.8724 314.7726,247.3236 " fill="none" id="WebClient-Manager" style="stroke: #A80036; stroke-width: 1.0;"/><text fill="#000000" font-family="sans-serif" font-size="13" lengthAdjust="spacingAndGlyphs" textLength="38" x="244.5" y="236.0669">DASH</text><!--link Apache to Manager--><path d="M384.5,175.5298 C384.5,191.7367 384.5,211.3193 384.5,226.99 " fill="none" id="Apache-Manager" style="stroke: #A80036; stroke-width: 1.0;"/><text fill="#000000" font-family="sans-serif" font-size="13" lengthAdjust="spacingAndGlyphs" textLength="49" x="348.5" y="205.8169">FastCGI</text><!--link Manager to DB--><path d="M454.1485,249.8943 C473.9618,248.8178 495.5714,248 515.5,248 C515.5,248 515.5,248 666.5,248 C686.4327,248 707.9908,248 727.9934,248 " fill="none" id="Manager-DB" style="stroke: #A80036; stroke-width: 1.0;"/><text fill="#000000" font-family="sans-serif" font-size="13" lengthAdjust="spacingAndGlyphs" textLength="26" x="578" y="244.0669">SQL</text><!--
@startuml
left to right direction
node ": GenericPC" as PC <<client workstation>> {
  node ": WebBrowser" as Browser <<browser>> {
    rectangle WebClient <<artifact>>
  }
}

node ": Raspberry Pi 4" as Server <<server>> {
  node ": Raspbian" as Raspbian <<OS>> {
    node ": PostgreSQL 12" as DB <<database>>
    node ": Apache 2" as Apache <<web server>>
    artifact ": MusicManager" as Manager <<artifact>>
  }
}

Browser - - Apache : HTTPS
WebClient - - Manager : DASH
Apache - Manager : FastCGI
Manager - - DB : SQL
@enduml

PlantUML version 1.2018.13(Mon Nov 26 18:11:51 CET 2018)
(GPL source distribution)
Java Runtime: OpenJDK Runtime Environment
JVM: OpenJDK 64-Bit Server VM
Java Version: 11.0.11+9-post-Debian-1deb10u1
Operating System: Linux
OS Version: 5.7.0-2-pinebookpro-arm64
Default Encoding: UTF-8
Language: en
Country: null
--></g></svg>